<?xml version="1.0" encoding="UTF-8" standalone="no"?>
<svg
   xmlns:dc="http://purl.org/dc/elements/1.1/"
   xmlns:cc="http://creativecommons.org/ns#"
   xmlns:rdf="http://www.w3.org/1999/02/22-rdf-syntax-ns#"
   xmlns:svg="http://www.w3.org/2000/svg"
   xmlns="http://www.w3.org/2000/svg"
   xmlns:sodipodi="http://sodipodi.sourceforge.net/DTD/sodipodi-0.dtd"
   xmlns:inkscape="http://www.inkscape.org/namespaces/inkscape"
   width="12"
   height="16"
   viewBox="0 0 12 16"
   version="1.1"
   id="svg6547"
   sodipodi:docname="sync.svg"
   inkscape:version="0.92.3 (2405546, 2018-03-11)">
  <metadata
     id="metadata6553">
    <rdf:RDF>
      <cc:Work
         rdf:about="">
        <dc:format>image/svg+xml</dc:format>
        <dc:type
           rdf:resource="http://purl.org/dc/dcmitype/StillImage" />
        <dc:title></dc:title>
      </cc:Work>
    </rdf:RDF>
  </metadata>
  <defs
     id="defs6551" />
  <sodipodi:namedview
     pagecolor="#ffffff"
     bordercolor="#666666"
     borderopacity="1"
     objecttolerance="10"
     gridtolerance="10"
     guidetolerance="10"
     inkscape:pageopacity="0"
     inkscape:pageshadow="2"
     inkscape:window-width="1920"
     inkscape:window-height="1137"
     id="namedview6549"
     showgrid="false"
     inkscape:zoom="14.75"
     inkscape:cx="-5.0169492"
     inkscape:cy="8"
     inkscape:window-x="-8"
     inkscape:window-y="-8"
     inkscape:window-maximized="1"
     inkscape:current-layer="svg6547" />
  <path
     fill-rule="evenodd"
     d="M10.24 7.4a4.15 4.15 0 0 1-1.2 3.6 4.346 4.346 0 0 1-5.41.54L4.8 10.4.5 9.8l.6 4.2 1.31-1.26c2.36 1.74 5.7 1.57 7.84-.54a5.876 5.876 0 0 0 1.74-4.46l-1.75-.34zM2.96 5a4.346 4.346 0 0 1 5.41-.54L7.2 5.6l4.3.6-.6-4.2-1.31 1.26c-2.36-1.74-5.7-1.57-7.85.54C.5 5.03-.06 6.65.01 8.26l1.75.35A4.17 4.17 0 0 1 2.96 5z"
     id="path6545"
     style="fill:#ffffff;fill-opacity:1" />
</svg>
